<svg xmlns="http://www.w3.org/2000/svg" viewBox="0 0 1000 1000" style="fill:#0273a2">
    <title>Flowers On An Easter Egg Decoration SVG icon</title>
        <g>
            <path
                d="M500,10c-127,0-222.4,145.5-268,232.3c-64.7,123.2-108.3,277.1-108.3,382.8C123.7,829.7,289,990,500,990c211,0,376.3-160.3,376.3-364.9c0-105.7-43.5-259.6-108.2-382.8C722.4,155.5,627,10,500,10z M730.4,443.6c-6.4,86.5-96.1,26.2-93.4-6.5C641.9,378.3,736.9,357.1,730.4,443.6z M648.9,795.9c-32.2-1.5-72-70.6-7.6-71.7C705.7,723.2,700.5,798.4,648.9,795.9z M675.7,827c0,15.3-12.6,27.7-28.2,27.7c-15.6,0-28.2-12.4-28.2-27.7c0-15.3,12.6-27.7,28.2-27.7C663.1,799.2,675.7,811.6,675.7,827z M608.1,484.3c67.6-35.9,111.1,70.2,33.8,89.7C564.6,593.7,581.9,498.2,608.1,484.3z M550.1,446c0-22.1,17.3-40,38.6-40c21.3,0,38.6,17.9,38.6,40c0,22.1-17.3,40-38.6,40C567.4,486,550.1,468.1,550.1,446z M682.1,216.8c-58,17.9-46.6-56.3-25.8-58.7C683.8,154.8,740.1,198.8,682.1,216.8z M696.4,166.9c-6-3-11.1-9.1-13.9-18.8C687.3,154.3,692,160.6,696.4,166.9z M644.5,104.3c9.6,9.7,18.8,20,27.6,30.7c-1.9,13-12.8,23-26.2,23c-14.7,0-26.6-12-26.6-26.9C619.4,116.7,630.5,105.1,644.5,104.3z M587.2,68.3c3.1-1.9,5.9-3.5,8.5-4.7c10.3,6.8,20.3,14.5,30,22.9c-0.6,13.2-5,27.2-9.5,32.4C588.8,149.9,535.6,100.9,587.2,68.3z M617.8,153.1c24.2,19.6,24.2,78.3-35.4,42.4C522.7,159.7,585.5,127,617.8,153.1z M619.4,290.2c95,32.6,17.7,133.8-37,107.7C527.6,371.8,509.9,251,619.4,290.2z M491.4,153.1c10.2,0,18.5,8.8,18.5,19.6c0,10.8-8.3,19.6-18.5,19.6c-10.2,0-18.5-8.8-18.5-19.6C472.8,161.9,481.1,153.1,491.4,153.1z M448.7,381.6c40.3-96.3,120.7,16.2,96.6,53.8C524.4,468,408.4,477.8,448.7,381.6z M378.3,83.2c8.8,2.7,17.7,9.7,25.3,22.6c33.8,57.1-46.7,79.9-69.2,39.2c-2.3-4.1-3.6-8.4-4.2-12.7C344.9,114.5,361,97.8,378.3,83.2z M325,138.5c5.7,5.1,9.3,12.6,9.3,21.2c0,15.3-11.5,27.7-25.8,27.7c-5.8,0-11-2.1-15.3-5.6C303,167.3,313.6,152.6,325,138.5z M251.4,252.5c9.8-18.7,22-40.2,36.4-62.4c2.2,0.5,4.3,1.2,6.3,2.2c23,11.1,33.8,112.6-38.6,71.8c-2.7-1.5-5.1-3.1-7.4-4.6c0,0,0,0,0-0.1c0,0-0.1-0.1-0.1-0.1C249.1,257.1,250.2,254.7,251.4,252.5z M324.7,403.6c0,18.5-14.8,33.4-33,33.4c-18.2,0-33-15-33-33.4c0-18.5,14.8-33.5,33-33.5C309.9,370.1,324.7,385.1,324.7,403.6z M329.5,574.1c56.3,91.4-47.3,113-78.9,76.7C226.5,623,273.2,482.7,329.5,574.1z M260.3,688.3c0,20.7-15.9,37.5-35.4,37.5c-19.6,0-35.4-16.8-35.4-37.5c0-20.7,15.9-37.5,35.4-37.5C244.4,650.7,260.3,667.6,260.3,688.3z M235.4,249.1c0.5,0.5,1.1,1,1.6,1.5c-29.7,57.9-56,120.7-74.1,181.3C180.7,370.7,205.4,307.4,235.4,249.1z M171.8,536.5c90.2-45.7,81.5,94.6,39.6,106.1c-15.9,4.3-51.9-9.8-62.8-30.6c0-0.2,0-0.4,0-0.6c0-0.2-1.3-0.5-1.5-0.7c0.7-19.1,2.2-39.6,5.4-61.2c0.1-0.1,0-0.2,0.1-0.3c0-0.1-0.1-0.2-0.1-0.2C157.7,544.7,164,540.5,171.8,536.5z M133,580.5c3.1-33.1,9.6-69.7,18.9-107.7c-7.8,32.7-12.7,64.2-13.9,93.5c-3.2,6.5-4.3,13.1-3.5,19.5c-1.1,2.2-1.8,4.5-2.3,6.7C132.4,588.5,132.6,584.6,133,580.5z M132,623.3c0-6.3-0.4-12.7-0.1-19.4c0.4,6.6,1.5,13.1,1.5,19.4c0,12.6,1.6,25,2.9,37.2c-0.6,0.1-1.2,0.1-1.3,0.2C133.8,648.4,132,636,132,623.3z M154.6,746c0.8,0.2,1.4,0.2,2.1,0.2C155.3,746.4,156.1,746.4,154.6,746z M166.2,742.4c-10.7-29.4-15.1-60.7-17.4-93.5c0-0.3-0.1-0.6-0.1-0.9c19-7.9,41.5,3.3,40.7,45.2C189.2,707.3,179.4,732.6,166.2,742.4z M221.7,813.9c-13.4-4.4-23.1-10.4-29.8-17.2c-4.1-7-8.1-14.2-11.7-21.5c-4.8-26.4,20.1-52.1,46.3-41.2C297.3,763.3,295.7,838.4,221.7,813.9z M348.9,750.3c-41.9,71.8-99.7-25.5-82.1-52.2C295.7,654,390.7,678.5,348.9,750.3z M332.8,176c41.9-35.9,133.6,26.1,58,79.9C315.1,309.8,304.9,199.9,332.8,176z M424.5,936.3c-12.5,0-22.5-11.3-22.5-25.3c0-14,10.1-25.3,22.5-25.3c12.5,0,22.5,11.3,22.5,25.3C447.1,924.9,437,936.3,424.5,936.3z M479.3,725.8c-15.1,0-27.4-13.1-27.4-29.4c0-16.2,12.2-29.4,27.4-29.4s27.4,13.1,27.4,29.4C506.6,712.7,494.4,725.8,479.3,725.8z M480.9,544.7c-70.8-66.9,44.5-90.6,70.8-68.5C588.8,507.2,551.7,611.6,480.9,544.7z M540.5,820.4c-6.4-78.3,85.3-42.4,74.1,0C608.5,843,546.9,898.7,540.5,820.4z M592,910.2c-51.5-21.2,16.7-74,41.9-55.5C669.3,880.8,643.5,931.4,592,910.2z M701.5,897.1c-48.3,29.4-52.4-35.4-29-47.3C711.1,830.2,749.8,867.7,701.5,897.1z M674.1,817.2c-6.4-26.1,61.2-57.1,61.2-9.8C735.3,854.7,680.6,843.7,674.1,817.2z M764.3,675.2c-41.9-47.3,9.7-66.9,38.6-35.9C820.9,658.6,806.1,722.5,764.3,675.2z M846,697.2c-27.9,12.9-29.7-41.7-8.4-51.4c5.4-2.5,13.8-3.2,13.8-2.8c0,0,0,0,0,0.1c0,0.1,1.4,0.2,1.7,0.3C852.2,661.8,849.7,679.8,846,697.2z M865.6,589.6c0.3,4.5,0.7,9.1,0.9,13.5c0.3,6.9,0.5,13.7,0.5,20.3c0,4.5-2.2,9-2.4,13.5c0.2-4.5-0.7-9-0.7-13.5c0-6.5-1.6-13.3-1.6-20.3c0-4.4,1.5-8.9,1.1-13.5c-0.6-0.1-1,0-1.5,0C863.2,589.4,864.4,589.4,865.6,589.6z M862.4,642.8c0,2.6,1.7,5.2,1.5,7.8c-0.8-1.2-0.8-2.3-1.9-3.2C861.7,645.9,862.4,644.4,862.4,642.8z M854.3,625.1c0,0.7-0.7,1.3-1.3,2c-4.6-4.9-8-10.4-8.2-13.9c-0.5-9.2,3.1-16.1,8.2-20.1C853.8,604.2,854.3,614.9,854.3,625.1z M839.9,543.1c2.8,0.9,5.3,1.9,7.6,3c2.1,13.4,3.8,26.6,4.9,39.2c-5.7,4.7-13.2,7.1-20.5,5.1C812.9,585.3,798.1,530,839.9,543.1z M821.4,593.7c12,0,21.7,11.7,21.7,26.1s-9.7,26.1-21.7,26.1c-12,0-21.7-11.7-21.7-26.1C799.7,605.3,809.4,593.7,821.4,593.7z M801.3,600.2c-13.6,27.5-83.7,26.1-48.3-31C788.4,512.1,814.2,574.1,801.3,600.2z M779.9,318.5c6.5,15.1,12.6,30.4,18.4,45.8c-4.3,10.2-12.8,17.3-22.8,17.3c-14.2,0-25.8-14.2-25.8-31.8c0-17.6,11.5-31.8,25.8-31.8C777,317.9,778.5,318.2,779.9,318.5z">
            </path>
        </g>
</svg>